<?xml version="1.0" encoding="UTF-8" standalone="no"?>
<!DOCTYPE svg PUBLIC "-//W3C//DTD SVG 1.1//EN"
 "http://www.w3.org/Graphics/SVG/1.1/DTD/svg11.dtd">
<!-- Generated by graphviz version 2.40.1 (20161225.0304)
 -->
<!-- Title: projects Pages: 1 -->
<svg width="251pt" height="98pt"
 viewBox="0.00 0.00 251.48 98.00" xmlns="http://www.w3.org/2000/svg" xmlns:xlink="http://www.w3.org/1999/xlink">
<g id="graph0" class="graph" transform="scale(1 1) rotate(0) translate(4 94)">
<title>projects</title>
<polygon fill="#ffffff" stroke="transparent" points="-4,4 -4,-94 247.4756,-94 247.4756,4 -4,4"/>
<!-- testApp -->
<g id="node1" class="node">
<title>testApp</title>
<path fill="#c6dbef" stroke="#084594" d="M51.7152,-63C51.7152,-63 11.7604,-63 11.7604,-63 5.7604,-63 -.2396,-57 -.2396,-51 -.2396,-51 -.2396,-39 -.2396,-39 -.2396,-33 5.7604,-27 11.7604,-27 11.7604,-27 51.7152,-27 51.7152,-27 57.7152,-27 63.7152,-33 63.7152,-39 63.7152,-39 63.7152,-51 63.7152,-51 63.7152,-57 57.7152,-63 51.7152,-63"/>
<text text-anchor="middle" x="31.7378" y="-40.8" font-family="sans-serif" font-size="14.00" fill="#000000">testApp</text>
</g>
<!-- lib1_1 -->
<g id="node2" class="node">
<title>lib1_1</title>
<path fill="#c6dbef" stroke="#084594" d="M141.4756,-90C141.4756,-90 111.4756,-90 111.4756,-90 105.4756,-90 99.4756,-84 99.4756,-78 99.4756,-78 99.4756,-66 99.4756,-66 99.4756,-60 105.4756,-54 111.4756,-54 111.4756,-54 141.4756,-54 141.4756,-54 147.4756,-54 153.4756,-60 153.4756,-66 153.4756,-66 153.4756,-78 153.4756,-78 153.4756,-84 147.4756,-90 141.4756,-90"/>
<text text-anchor="middle" x="126.4756" y="-67.8" font-family="sans-serif" font-size="14.00" fill="#000000">lib1_1</text>
</g>
<!-- testApp&#45;&gt;lib1_1 -->
<g id="edge1" class="edge">
<title>testApp&#45;&gt;lib1_1</title>
<path fill="none" stroke="#084594" d="M63.5477,-54.0657C71.893,-56.4441 80.9633,-59.0291 89.5514,-61.4767"/>
<polygon fill="none" stroke="#084594" points="88.763,-64.8913 99.3394,-64.2663 90.6817,-58.1594 88.763,-64.8913"/>
</g>
<!-- lib1_2 -->
<g id="node3" class="node">
<title>lib1_2</title>
<path fill="#c6dbef" stroke="#084594" d="M141.4756,-36C141.4756,-36 111.4756,-36 111.4756,-36 105.4756,-36 99.4756,-30 99.4756,-24 99.4756,-24 99.4756,-12 99.4756,-12 99.4756,-6 105.4756,0 111.4756,0 111.4756,0 141.4756,0 141.4756,0 147.4756,0 153.4756,-6 153.4756,-12 153.4756,-12 153.4756,-24 153.4756,-24 153.4756,-30 147.4756,-36 141.4756,-36"/>
<text text-anchor="middle" x="126.4756" y="-13.8" font-family="sans-serif" font-size="14.00" fill="#000000">lib1_2</text>
</g>
<!-- testApp&#45;&gt;lib1_2 -->
<g id="edge2" class="edge">
<title>testApp&#45;&gt;lib1_2</title>
<path fill="none" stroke="#084594" d="M63.5477,-35.9343C71.893,-33.5559 80.9633,-30.9709 89.5514,-28.5233"/>
<polygon fill="none" stroke="#084594" points="90.6817,-31.8406 99.3394,-25.7337 88.763,-25.1087 90.6817,-31.8406"/>
</g>
<!-- core1 -->
<g id="node4" class="node">
<title>core1</title>
<path fill="#c6dbef" stroke="#084594" d="M231.4756,-63C231.4756,-63 201.4756,-63 201.4756,-63 195.4756,-63 189.4756,-57 189.4756,-51 189.4756,-51 189.4756,-39 189.4756,-39 189.4756,-33 195.4756,-27 201.4756,-27 201.4756,-27 231.4756,-27 231.4756,-27 237.4756,-27 243.4756,-33 243.4756,-39 243.4756,-39 243.4756,-51 243.4756,-51 243.4756,-57 237.4756,-63 231.4756,-63"/>
<text text-anchor="middle" x="216.4756" y="-40.8" font-family="sans-serif" font-size="14.00" fill="#000000">core1</text>
</g>
<!-- lib1_1&#45;&gt;core1 -->
<g id="edge3" class="edge">
<title>lib1_1&#45;&gt;core1</title>
<path fill="none" stroke="#084594" d="M153.4786,-63.8991C161.6796,-61.4388 170.8355,-58.692 179.5706,-56.0715"/>
<polygon fill="none" stroke="#084594" points="180.6081,-59.4144 189.1806,-53.1885 178.5966,-52.7096 180.6081,-59.4144"/>
</g>
<!-- lib1_2&#45;&gt;core1 -->
<g id="edge4" class="edge">
<title>lib1_2&#45;&gt;core1</title>
<path fill="none" stroke="#084594" d="M153.4786,-26.1009C161.6796,-28.5612 170.8355,-31.308 179.5706,-33.9285"/>
<polygon fill="none" stroke="#084594" points="178.5966,-37.2904 189.1806,-36.8115 180.6081,-30.5856 178.5966,-37.2904"/>
</g>
</g>
</svg>
