<?xml version="1.0" encoding="UTF-8" standalone="no"?>
<!DOCTYPE svg PUBLIC "-//W3C//DTD SVG 1.1//EN"
 "http://www.w3.org/Graphics/SVG/1.1/DTD/svg11.dtd">
<!-- Generated by graphviz version 2.40.1 (20161225.0304)
 -->
<!-- Title: sources Pages: 1 -->
<svg width="941pt" height="358pt"
 viewBox="0.00 0.00 940.68 358.00" xmlns="http://www.w3.org/2000/svg" xmlns:xlink="http://www.w3.org/1999/xlink">
<g id="graph0" class="graph" transform="scale(1 1) rotate(0) translate(4 354)">
<title>sources</title>
<polygon fill="#ffffff" stroke="transparent" points="-4,4 -4,-354 936.6797,-354 936.6797,4 -4,4"/>
<g id="clust1" class="cluster">
<title>cluster_app</title>
<polygon fill="none" stroke="#c6dbef" points="8,-236 8,-342 339.9922,-342 339.9922,-236 8,-236"/>
</g>
<g id="clust2" class="cluster">
<title>cluster_lib1_1</title>
<polygon fill="none" stroke="#c6dbef" points="245.334,-122 245.334,-228 636.2461,-228 636.2461,-122 245.334,-122"/>
</g>
<g id="clust3" class="cluster">
<title>cluster_core1</title>
<polygon fill="none" stroke="#c6dbef" points="534.9775,-8 534.9775,-114 924.6797,-114 924.6797,-8 534.9775,-8"/>
</g>
<!-- App -->
<g id="node1" class="node">
<title>App</title>
<path fill="#c6dbef" stroke="#084594" d="M58,-307C58,-307 28,-307 28,-307 22,-307 16,-301 16,-295 16,-295 16,-283 16,-283 16,-277 22,-271 28,-271 28,-271 58,-271 58,-271 64,-271 70,-277 70,-283 70,-283 70,-295 70,-295 70,-301 64,-307 58,-307"/>
<text text-anchor="middle" x="43" y="-284.8" font-family="sans-serif" font-size="14.00" fill="#000000">App</text>
</g>
<!-- AppImpl1_1 -->
<g id="node2" class="node">
<title>AppImpl1_1</title>
<path fill="#c6dbef" stroke="#084594" d="M184.5756,-280C184.5756,-280 118.1412,-280 118.1412,-280 112.1412,-280 106.1412,-274 106.1412,-268 106.1412,-268 106.1412,-256 106.1412,-256 106.1412,-250 112.1412,-244 118.1412,-244 118.1412,-244 184.5756,-244 184.5756,-244 190.5756,-244 196.5756,-250 196.5756,-256 196.5756,-256 196.5756,-268 196.5756,-268 196.5756,-274 190.5756,-280 184.5756,-280"/>
<text text-anchor="middle" x="151.3584" y="-257.8" font-family="sans-serif" font-size="14.00" fill="#000000">AppImpl1_1</text>
</g>
<!-- App&#45;&gt;AppImpl1_1 -->
<g id="edge1" class="edge">
<title>App&#45;&gt;AppImpl1_1</title>
<path fill="none" stroke="#084594" d="M70.0639,-282.2564C78.0739,-280.2605 87.1493,-277.9992 96.2594,-275.7292"/>
<polygon fill="#084594" stroke="#084594" points="106.1097,-273.2748 97.4944,-280.0591 101.2581,-274.4837 96.4064,-275.6926 96.4064,-275.6926 96.4064,-275.6926 101.2581,-274.4837 95.3184,-271.3261 106.1097,-273.2748 106.1097,-273.2748"/>
</g>
<!-- AppImpl1_2 -->
<g id="node3" class="node">
<title>AppImpl1_2</title>
<path fill="#c6dbef" stroke="#084594" d="M184.5756,-334C184.5756,-334 118.1412,-334 118.1412,-334 112.1412,-334 106.1412,-328 106.1412,-322 106.1412,-322 106.1412,-310 106.1412,-310 106.1412,-304 112.1412,-298 118.1412,-298 118.1412,-298 184.5756,-298 184.5756,-298 190.5756,-298 196.5756,-304 196.5756,-310 196.5756,-310 196.5756,-322 196.5756,-322 196.5756,-328 190.5756,-334 184.5756,-334"/>
<text text-anchor="middle" x="151.3584" y="-311.8" font-family="sans-serif" font-size="14.00" fill="#000000">AppImpl1_2</text>
</g>
<!-- App&#45;&gt;AppImpl1_2 -->
<g id="edge2" class="edge">
<title>App&#45;&gt;AppImpl1_2</title>
<path fill="none" stroke="#084594" d="M70.0639,-295.7436C78.0739,-297.7395 87.1493,-300.0008 96.2594,-302.2708"/>
<polygon fill="#084594" stroke="#084594" points="106.1097,-304.7252 95.3184,-306.6739 101.2581,-303.5163 96.4064,-302.3074 96.4064,-302.3074 96.4064,-302.3074 101.2581,-303.5163 97.4944,-297.9409 106.1097,-304.7252 106.1097,-304.7252"/>
</g>
<!-- AppNoDeps1 -->
<g id="node4" class="node">
<title>AppNoDeps1</title>
<path fill="#c6dbef" stroke="#084594" d="M320.1303,-307C320.1303,-307 244.5787,-307 244.5787,-307 238.5787,-307 232.5787,-301 232.5787,-295 232.5787,-295 232.5787,-283 232.5787,-283 232.5787,-277 238.5787,-271 244.5787,-271 244.5787,-271 320.1303,-271 320.1303,-271 326.1303,-271 332.1303,-277 332.1303,-283 332.1303,-283 332.1303,-295 332.1303,-295 332.1303,-301 326.1303,-307 320.1303,-307"/>
<text text-anchor="middle" x="282.3545" y="-284.8" font-family="sans-serif" font-size="14.00" fill="#000000">AppNoDeps1</text>
</g>
<!-- AppImpl1_1&#45;&gt;AppNoDeps1 -->
<g id="edge3" class="edge">
<title>AppImpl1_1&#45;&gt;AppNoDeps1</title>
<path fill="none" stroke="#084594" d="M196.8068,-271.3675C205.0924,-273.0753 213.8518,-274.8807 222.48,-276.6591"/>
<polygon fill="#084594" stroke="#084594" points="232.5123,-278.7269 221.8097,-281.1155 227.6152,-277.7175 222.7182,-276.7081 222.7182,-276.7081 222.7182,-276.7081 227.6152,-277.7175 223.6266,-272.3007 232.5123,-278.7269 232.5123,-278.7269"/>
</g>
<!-- Lib1_1 -->
<g id="node5" class="node">
<title>Lib1_1</title>
<path fill="#c6dbef" stroke="#084594" d="M299.3955,-220C299.3955,-220 265.3135,-220 265.3135,-220 259.3135,-220 253.3135,-214 253.3135,-208 253.3135,-208 253.3135,-196 253.3135,-196 253.3135,-190 259.3135,-184 265.3135,-184 265.3135,-184 299.3955,-184 299.3955,-184 305.3955,-184 311.3955,-190 311.3955,-196 311.3955,-196 311.3955,-208 311.3955,-208 311.3955,-214 305.3955,-220 299.3955,-220"/>
<text text-anchor="middle" x="282.3545" y="-197.8" font-family="sans-serif" font-size="14.00" fill="#000000">Lib1_1</text>
</g>
<!-- AppImpl1_1&#45;&gt;Lib1_1 -->
<g id="edge5" class="edge">
<title>AppImpl1_1&#45;&gt;Lib1_1</title>
<path fill="none" stroke="#084594" d="M190.6615,-243.998C207.4192,-236.3226 226.9157,-227.3926 243.6115,-219.7454"/>
<polygon fill="#084594" stroke="#084594" points="253.0762,-215.4103 245.8584,-223.6659 248.5303,-217.4925 243.9845,-219.5746 243.9845,-219.5746 243.9845,-219.5746 248.5303,-217.4925 242.1105,-215.4834 253.0762,-215.4103 253.0762,-215.4103"/>
</g>
<!-- AppImpl1_2&#45;&gt;AppNoDeps1 -->
<g id="edge4" class="edge">
<title>AppImpl1_2&#45;&gt;AppNoDeps1</title>
<path fill="none" stroke="#084594" d="M196.8068,-306.6325C205.0924,-304.9247 213.8518,-303.1193 222.48,-301.3409"/>
<polygon fill="#084594" stroke="#084594" points="232.5123,-299.2731 223.6266,-305.6993 227.6152,-300.2825 222.7182,-301.2919 222.7182,-301.2919 222.7182,-301.2919 227.6152,-300.2825 221.8097,-296.8845 232.5123,-299.2731 232.5123,-299.2731"/>
</g>
<!-- AppImpl1_2&#45;&gt;Lib1_1 -->
<g id="edge6" class="edge">
<title>AppImpl1_2&#45;&gt;Lib1_1</title>
<path fill="none" stroke="#084594" d="M185.8253,-297.898C189.7037,-295.1752 193.4343,-292.197 196.7168,-289 218.1815,-268.0944 211.3223,-252.9775 232.7168,-232 236.3533,-228.4344 240.4904,-225.1067 244.7884,-222.0621"/>
<polygon fill="#084594" stroke="#084594" points="253.1625,-216.5679 247.27,-225.816 248.982,-219.3107 244.8014,-222.0535 244.8014,-222.0535 244.8014,-222.0535 248.982,-219.3107 242.3329,-218.291 253.1625,-216.5679 253.1625,-216.5679"/>
</g>
<!-- Lib1_1Impl1_1 -->
<g id="node6" class="node">
<title>Lib1_1Impl1_1</title>
<path fill="#c6dbef" stroke="#084594" d="M463.7638,-166C463.7638,-166 380.0683,-166 380.0683,-166 374.0683,-166 368.0683,-160 368.0683,-154 368.0683,-154 368.0683,-142 368.0683,-142 368.0683,-136 374.0683,-130 380.0683,-130 380.0683,-130 463.7638,-130 463.7638,-130 469.7638,-130 475.7638,-136 475.7638,-142 475.7638,-142 475.7638,-154 475.7638,-154 475.7638,-160 469.7638,-166 463.7638,-166"/>
<text text-anchor="middle" x="421.916" y="-143.8" font-family="sans-serif" font-size="14.00" fill="#000000">Lib1_1Impl1_1</text>
</g>
<!-- Lib1_1&#45;&gt;Lib1_1Impl1_1 -->
<g id="edge7" class="edge">
<title>Lib1_1&#45;&gt;Lib1_1Impl1_1</title>
<path fill="none" stroke="#084594" d="M311.6112,-190.6798C327.3342,-184.5962 347.2577,-176.8872 365.8333,-169.6999"/>
<polygon fill="#084594" stroke="#084594" points="375.3948,-166.0003 367.6925,-173.8057 370.7317,-167.8046 366.0686,-169.6089 366.0686,-169.6089 366.0686,-169.6089 370.7317,-167.8046 364.4447,-165.4121 375.3948,-166.0003 375.3948,-166.0003"/>
</g>
<!-- Lib1_1Impl1_2 -->
<g id="node7" class="node">
<title>Lib1_1Impl1_2</title>
<path fill="#c6dbef" stroke="#084594" d="M463.7638,-220C463.7638,-220 380.0683,-220 380.0683,-220 374.0683,-220 368.0683,-214 368.0683,-208 368.0683,-208 368.0683,-196 368.0683,-196 368.0683,-190 374.0683,-184 380.0683,-184 380.0683,-184 463.7638,-184 463.7638,-184 469.7638,-184 475.7638,-190 475.7638,-196 475.7638,-196 475.7638,-208 475.7638,-208 475.7638,-214 469.7638,-220 463.7638,-220"/>
<text text-anchor="middle" x="421.916" y="-197.8" font-family="sans-serif" font-size="14.00" fill="#000000">Lib1_1Impl1_2</text>
</g>
<!-- Lib1_1&#45;&gt;Lib1_1Impl1_2 -->
<g id="edge8" class="edge">
<title>Lib1_1&#45;&gt;Lib1_1Impl1_2</title>
<path fill="none" stroke="#084594" d="M311.6112,-202C324.9869,-202 341.4025,-202 357.4421,-202"/>
<polygon fill="#084594" stroke="#084594" points="367.8924,-202 357.8924,-206.5001 362.8924,-202 357.8924,-202.0001 357.8924,-202.0001 357.8924,-202.0001 362.8924,-202 357.8923,-197.5001 367.8924,-202 367.8924,-202"/>
</g>
<!-- Lib1_1NoDeps1 -->
<g id="node8" class="node">
<title>Lib1_1NoDeps1</title>
<path fill="#c6dbef" stroke="#084594" d="M616.4499,-193C616.4499,-193 523.636,-193 523.636,-193 517.636,-193 511.636,-187 511.636,-181 511.636,-181 511.636,-169 511.636,-169 511.636,-163 517.636,-157 523.636,-157 523.636,-157 616.4499,-157 616.4499,-157 622.4499,-157 628.4499,-163 628.4499,-169 628.4499,-169 628.4499,-181 628.4499,-181 628.4499,-187 622.4499,-193 616.4499,-193"/>
<text text-anchor="middle" x="570.043" y="-170.8" font-family="sans-serif" font-size="14.00" fill="#000000">Lib1_1NoDeps1</text>
</g>
<!-- Lib1_1Impl1_1&#45;&gt;Lib1_1NoDeps1 -->
<g id="edge9" class="edge">
<title>Lib1_1Impl1_1&#45;&gt;Lib1_1NoDeps1</title>
<path fill="none" stroke="#084594" d="M475.8123,-157.824C484.1955,-159.3521 492.9519,-160.9481 501.6053,-162.5255"/>
<polygon fill="#084594" stroke="#084594" points="511.6878,-164.3633 501.0429,-166.997 506.7689,-163.4666 501.8499,-162.57 501.8499,-162.57 501.8499,-162.57 506.7689,-163.4666 502.6569,-158.1429 511.6878,-164.3633 511.6878,-164.3633"/>
</g>
<!-- Core1 -->
<g id="node9" class="node">
<title>Core1</title>
<path fill="#c6dbef" stroke="#084594" d="M585.174,-106C585.174,-106 554.912,-106 554.912,-106 548.912,-106 542.912,-100 542.912,-94 542.912,-94 542.912,-82 542.912,-82 542.912,-76 548.912,-70 554.912,-70 554.912,-70 585.174,-70 585.174,-70 591.174,-70 597.174,-76 597.174,-82 597.174,-82 597.174,-94 597.174,-94 597.174,-100 591.174,-106 585.174,-106"/>
<text text-anchor="middle" x="570.043" y="-83.8" font-family="sans-serif" font-size="14.00" fill="#000000">Core1</text>
</g>
<!-- Lib1_1Impl1_1&#45;&gt;Core1 -->
<g id="edge11" class="edge">
<title>Lib1_1Impl1_1&#45;&gt;Core1</title>
<path fill="none" stroke="#084594" d="M466.359,-129.998C487.7434,-121.3361 513.0723,-111.0764 533.3423,-102.8659"/>
<polygon fill="#084594" stroke="#084594" points="542.8473,-99.0158 535.2682,-106.941 538.213,-100.893 533.5787,-102.7702 533.5787,-102.7702 533.5787,-102.7702 538.213,-100.893 531.8893,-98.5994 542.8473,-99.0158 542.8473,-99.0158"/>
</g>
<!-- Lib1_1Impl1_2&#45;&gt;Lib1_1NoDeps1 -->
<g id="edge10" class="edge">
<title>Lib1_1Impl1_2&#45;&gt;Lib1_1NoDeps1</title>
<path fill="none" stroke="#084594" d="M475.8123,-192.176C484.1955,-190.6479 492.9519,-189.0519 501.6053,-187.4745"/>
<polygon fill="#084594" stroke="#084594" points="511.6878,-185.6367 502.6569,-191.8571 506.7689,-186.5334 501.8499,-187.43 501.8499,-187.43 501.8499,-187.43 506.7689,-186.5334 501.0429,-183.003 511.6878,-185.6367 511.6878,-185.6367"/>
</g>
<!-- Lib1_1Impl1_2&#45;&gt;Core1 -->
<g id="edge12" class="edge">
<title>Lib1_1Impl1_2&#45;&gt;Core1</title>
<path fill="none" stroke="#084594" d="M464.0355,-183.8278C468.2418,-181.1753 472.2699,-178.2326 475.8398,-175 498.0503,-154.8884 489.7475,-138.2412 511.8398,-118 518.286,-112.0939 526.1119,-107.0289 533.9068,-102.8327"/>
<polygon fill="#084594" stroke="#084594" points="542.9586,-98.3074 536.0264,-106.8041 538.4863,-100.5432 534.0141,-102.7791 534.0141,-102.7791 534.0141,-102.7791 538.4863,-100.5432 532.0018,-98.7541 542.9586,-98.3074 542.9586,-98.3074"/>
</g>
<!-- Core1Impl1_1 -->
<g id="node10" class="node">
<title>Core1Impl1_1</title>
<path fill="#c6dbef" stroke="#084594" d="M756.1524,-52C756.1524,-52 676.2773,-52 676.2773,-52 670.2773,-52 664.2773,-46 664.2773,-40 664.2773,-40 664.2773,-28 664.2773,-28 664.2773,-22 670.2773,-16 676.2773,-16 676.2773,-16 756.1524,-16 756.1524,-16 762.1524,-16 768.1524,-22 768.1524,-28 768.1524,-28 768.1524,-40 768.1524,-40 768.1524,-46 762.1524,-52 756.1524,-52"/>
<text text-anchor="middle" x="716.2148" y="-29.8" font-family="sans-serif" font-size="14.00" fill="#000000">Core1Impl1_1</text>
</g>
<!-- Core1&#45;&gt;Core1Impl1_1 -->
<g id="edge13" class="edge">
<title>Core1&#45;&gt;Core1Impl1_1</title>
<path fill="none" stroke="#084594" d="M597.1942,-77.9696C614.2343,-71.6745 636.8767,-63.3098 657.8358,-55.5669"/>
<polygon fill="#084594" stroke="#084594" points="667.321,-52.0627 659.5001,-59.7493 662.6308,-53.7955 657.9407,-55.5282 657.9407,-55.5282 657.9407,-55.5282 662.6308,-53.7955 656.3812,-51.307 667.321,-52.0627 667.321,-52.0627"/>
</g>
<!-- Core1Impl1_2 -->
<g id="node11" class="node">
<title>Core1Impl1_2</title>
<path fill="#c6dbef" stroke="#084594" d="M756.1524,-106C756.1524,-106 676.2773,-106 676.2773,-106 670.2773,-106 664.2773,-100 664.2773,-94 664.2773,-94 664.2773,-82 664.2773,-82 664.2773,-76 670.2773,-70 676.2773,-70 676.2773,-70 756.1524,-70 756.1524,-70 762.1524,-70 768.1524,-76 768.1524,-82 768.1524,-82 768.1524,-94 768.1524,-94 768.1524,-100 762.1524,-106 756.1524,-106"/>
<text text-anchor="middle" x="716.2148" y="-83.8" font-family="sans-serif" font-size="14.00" fill="#000000">Core1Impl1_2</text>
</g>
<!-- Core1&#45;&gt;Core1Impl1_2 -->
<g id="edge14" class="edge">
<title>Core1&#45;&gt;Core1Impl1_2</title>
<path fill="none" stroke="#084594" d="M597.1942,-88C613.1539,-88 634.0279,-88 653.8307,-88"/>
<polygon fill="#084594" stroke="#084594" points="664.0569,-88 654.0569,-92.5001 659.0569,-88 654.0569,-88.0001 654.0569,-88.0001 654.0569,-88.0001 659.0569,-88 654.0568,-83.5001 664.0569,-88 664.0569,-88"/>
</g>
<!-- Core1NoDeps1 -->
<g id="node12" class="node">
<title>Core1NoDeps1</title>
<path fill="#c6dbef" stroke="#084594" d="M904.9288,-79C904.9288,-79 815.9344,-79 815.9344,-79 809.9344,-79 803.9344,-73 803.9344,-67 803.9344,-67 803.9344,-55 803.9344,-55 803.9344,-49 809.9344,-43 815.9344,-43 815.9344,-43 904.9288,-43 904.9288,-43 910.9288,-43 916.9288,-49 916.9288,-55 916.9288,-55 916.9288,-67 916.9288,-67 916.9288,-73 910.9288,-79 904.9288,-79"/>
<text text-anchor="middle" x="860.4316" y="-56.8" font-family="sans-serif" font-size="14.00" fill="#000000">Core1NoDeps1</text>
</g>
<!-- Core1Impl1_1&#45;&gt;Core1NoDeps1 -->
<g id="edge15" class="edge">
<title>Core1Impl1_1&#45;&gt;Core1NoDeps1</title>
<path fill="none" stroke="#084594" d="M768.2804,-43.7476C776.631,-45.311 785.3711,-46.9473 794.0021,-48.5632"/>
<polygon fill="#084594" stroke="#084594" points="804.054,-50.4451 793.3967,-53.028 799.1394,-49.5249 794.2248,-48.6048 794.2248,-48.6048 794.2248,-48.6048 799.1394,-49.5249 795.053,-44.1817 804.054,-50.4451 804.054,-50.4451"/>
</g>
<!-- Core1Impl1_2&#45;&gt;Core1NoDeps1 -->
<g id="edge16" class="edge">
<title>Core1Impl1_2&#45;&gt;Core1NoDeps1</title>
<path fill="none" stroke="#084594" d="M768.2804,-78.2524C776.631,-76.689 785.3711,-75.0527 794.0021,-73.4368"/>
<polygon fill="#084594" stroke="#084594" points="804.054,-71.5549 795.053,-77.8183 799.1394,-72.4751 794.2248,-73.3952 794.2248,-73.3952 794.2248,-73.3952 799.1394,-72.4751 793.3967,-68.972 804.054,-71.5549 804.054,-71.5549"/>
</g>
</g>
</svg>
